<?xml version="1.0" encoding="utf-8"?>
<!-- Generator: Adobe Illustrator 28.1.0, SVG Export Plug-In . SVG Version: 6.00 Build 0)  -->
<svg version="1.1" id="Слой_1" xmlns="http://www.w3.org/2000/svg" xmlns:xlink="http://www.w3.org/1999/xlink" x="0px" y="0px"
	 viewBox="0 0 456 456" style="enable-background:new 0 0 456 456;" xml:space="preserve">
<style type="text/css">
	.st0{fill:#220A9B;}
	.st1{fill:#FCFCFC;}
	.st2{font-family:'ArialMT';}
	.st3{font-size:65.9539px;}
	.st4{font-size:47.8166px;}
	.st5{letter-spacing:2.1;}
	.st6{font-family:'AcademyEngravedLetPlain';}
	.st7{font-size:146.7475px;}
	.st8{font-size:120.3659px;}
</style>
<g id="Слой_1_00000036930055748944559460000006340392743404848032_">
	<g id="Слой_1_00000005245354202634035650000003805742352510994319_" xmlns:serif="http://www.serif.com/">
		<path class="st0" d="M504.5,595.2c-0.6,0-1.1-0.2-1.4-0.7c-0.5-0.5-0.6-1-0.6-1.6s0.2-1.2,0.6-1.6c0.5-0.5,0.9-0.7,1.4-0.7
			c0.6,0,1.1,0.2,1.4,0.7c0.5,0.5,0.6,1,0.6,1.6s-0.2,1.2-0.6,1.6C505.6,595,505.1,595.2,504.5,595.2z"/>
		<path class="st0" d="M527.3,594.8h-3.7l-9.8-17.8c-0.3-0.5-0.5-1-0.6-1.5H513c0,0.5,0.2,1.6,0.2,3.3v16h-3.3v-24.2h3.9l9.5,17.5
			c0.5,0.7,0.6,1.2,0.8,1.5l0,0c-0.2-0.7-0.2-1.8-0.2-3.3v-15.7h3.3L527.3,594.8L527.3,594.8z"/>
		<path class="st0" d="M543.1,594.8h-11.5v-24.2h11v3.5H535v6.9h7v3.5h-7v7.3h8.1V594.8L543.1,594.8z"/>
		<path class="st0" d="M559.3,573.9h-5.9v20.9H550v-20.9h-5.9v-3.5h15L559.3,573.9L559.3,573.9z"/>
	</g>
	<g id="Слой_2_00000082340423685227257660000009629915667156229289_">
		<text transform="matrix(0.9396 0 0 1 123.0698 280.4626)" class="st1 st2 st3">   anager</text>
	</g>
	<g id="Слой_5">
		<text transform="matrix(0.9396 0 0 1 214.6141 232.5959)" class="st1 st2 st4 st5">l</text>
		<text transform="matrix(0.9396 0 0 1 226.0794 232.5959)" class="st1 st2 st3 st5">nance</text>
	</g>
	<text transform="matrix(0.9396 0 0 1 40.4258 280.4636)" class="st1 st6 st7">M</text>
	<text transform="matrix(0.9396 0 0 1 157.6922 232.5959)" class="st1 st6 st8">F</text>
	<g>
		<g>
			<path class="st1" d="M219.3,196.3c-0.3,0-0.6,0-0.9,0c-0.3,0-0.5-0.2-0.8-0.2s-0.5-0.2-0.6-0.3v-2.2h0.3c0.2,0.8,0.3,1.3,0.6,1.6
				s0.8,0.5,1.2,0.5c0.6,0,1.1-0.2,1.4-0.3c0.3-0.2,0.5-0.7,0.5-1.2s-0.2-0.8-0.3-1c-0.3-0.3-0.6-0.5-1.2-0.8
				c-0.6-0.3-1.1-0.7-1.4-0.8c-0.3-0.3-0.6-0.5-0.8-0.8s-0.2-0.7-0.2-1c0-0.7,0.2-1.2,0.6-1.5c0.5-0.3,1.1-0.5,1.7-0.5
				c0.3,0,0.6,0,0.8,0c0.3,0,0.5,0.2,0.8,0.2c0.2,0.2,0.5,0.2,0.6,0.3v1.6h-0.2c-0.2-0.7-0.3-1.2-0.6-1.5s-0.8-0.5-1.2-0.5
				c-0.5,0-0.9,0.2-1.1,0.3c-0.3,0.2-0.5,0.5-0.5,1c0,0.3,0,0.5,0.2,0.7s0.3,0.3,0.6,0.5s0.6,0.5,1.2,0.7c0.3,0.2,0.5,0.3,0.8,0.5
				s0.5,0.3,0.6,0.5c0.2,0.2,0.3,0.5,0.5,0.7s0.2,0.5,0.2,1s-0.2,1-0.3,1.3c-0.2,0.3-0.6,0.7-0.9,0.7S220,196.3,219.3,196.3z
				 M219.8,197.4h-0.5v-10.6h0.5V197.4z"/>
		</g>
	</g>
</g>
<g id="Слой_2_00000150811584794389466830000008335879331722537378_">
</g>
</svg>
